<svg id="Layer_1" data-name="Layer 1" xmlns="http://www.w3.org/2000/svg" xmlns:xlink="http://www.w3.org/1999/xlink" viewBox="0 0 1080 1080"><defs><style>.cls-1{fill:none;}.cls-2{clip-path:url(#clip-path);}.cls-3{fill:#ffefc7;}.cls-4{fill:#fff;}</style><clipPath id="clip-path"><rect class="cls-1" x="212.08" y="251.89" width="655.83" height="677.54"/></clipPath></defs><title>Portal Icons</title><g class="cls-2"><path class="cls-3" d="M460.52,574.15a17.22,17.22,0,0,1-12.18-29.4l77.95-77.95a17.22,17.22,0,1,1,24.36,24.36l-78,77.95a17.08,17.08,0,0,1-12.16,5"/><path class="cls-4" d="M460.52,574.15a17.22,17.22,0,0,1-12.18-29.4l77.95-77.95a17.22,17.22,0,1,1,24.36,24.36l-78,77.95a17.08,17.08,0,0,1-12.16,5"/><path class="cls-3" d="M563.69,677.27a17.25,17.25,0,0,1-12.22-29.46L676,523.31a17.27,17.27,0,0,1,24.44,24.4L575.89,672.23a17.21,17.21,0,0,1-12.2,5"/><path class="cls-4" d="M563.69,677.27a17.25,17.25,0,0,1-12.22-29.46L676,523.31a17.27,17.27,0,0,1,24.44,24.4L575.89,672.23a17.21,17.21,0,0,1-12.2,5"/><path class="cls-3" d="M508.71,620.49A17.26,17.26,0,0,1,496.49,591L648,439.5a17.27,17.27,0,0,1,24.44,24.42l-151.5,151.5a17.16,17.16,0,0,1-12.22,5.06"/><path class="cls-4" d="M508.71,620.49A17.26,17.26,0,0,1,496.49,591L648,439.5a17.27,17.27,0,0,1,24.44,24.42l-151.5,151.5a17.16,17.16,0,0,1-12.22,5.06"/><path class="cls-3" d="M823.62,503.45,463.84,863.25,256.37,655.76,616.15,296Zm36.76-12.26-232-232c-6.5-6.52-18-6.52-24.52,0L219.59,643.5a17.35,17.35,0,0,0,0,24.52L443.86,892.3h-94a17.34,17.34,0,0,0,0,34.69H756.79a17.34,17.34,0,0,0,0-34.69h-273L860.38,515.71a17.31,17.31,0,0,0,0-24.52"/><path class="cls-4" d="M823.62,503.45,463.84,863.25,256.37,655.76,616.15,296Zm36.76-12.26-232-232c-6.5-6.52-18-6.52-24.52,0L219.59,643.5a17.35,17.35,0,0,0,0,24.52L443.86,892.3h-94a17.34,17.34,0,0,0,0,34.69H756.79a17.34,17.34,0,0,0,0-34.69h-273L860.38,515.71a17.31,17.31,0,0,0,0-24.52"/></g></svg>