<svg id="Layer_1" data-name="Layer 1" xmlns="http://www.w3.org/2000/svg" xmlns:xlink="http://www.w3.org/1999/xlink" viewBox="0 0 1080 1080"><defs><style>.cls-1,.cls-5,.cls-6{fill:none;}.cls-2{fill:#d7f0f9;}.cls-3{fill:#fff;}.cls-4{clip-path:url(#clip-path);}.cls-5,.cls-6{stroke:#fff;stroke-miterlimit:10;}.cls-5{stroke-width:0.5px;}.cls-6{stroke-width:0.36px;}</style><clipPath id="clip-path"><rect class="cls-1" x="198.02" y="231.11" width="683.96" height="721.64"/></clipPath></defs><title>Portal Icons</title><path class="cls-2" d="M235,627.91H544v120H784.81v188H235Zm80.28-140H463.72v48H315.24Zm73.84-57.61,45.76,45.61H343.32ZM656.37,368h68.23v368H656.37ZM214.91,328H865.06v28H214.91Zm441.46-80h68.23v68H656.37Zm-12-12v80H202.86v52H383.47v51.19l-57,56.8H303.22v72H475.77v-72H452.48l-57-56.8V368H644.33v368H556v-120H222.94v332H796.83v-212h-60.2V368H877.11V316H736.63V236Z"/><path class="cls-3" d="M235,627.9H544v120H784.81v188H235Zm80.3-140H463.73v48H315.27Zm73.81-57.58,45.76,45.59H343.33ZM656.36,368h68.21v368H656.36ZM214.92,328H865.07v28H214.92Zm441.44-80h68.21v68H656.36Zm-12-12v80H202.87v52H383.48v51.19l-57,56.8H303.18v72h172.6v-72H452.49l-57-56.8V368H644.34v368H556v-120H222.95v332H796.83v-212h-60.2V368H877.11v-52H736.63V236Z"/><g class="cls-4"><path class="cls-5" d="M865.07,356H214.92V328H865.07ZM656.35,368h68.23v368H656.35Zm128.43,380v188H235v-308H544v120Zm-349.95-272H343.33l45.76-45.61Zm28.89,60H315.24v-48H463.73ZM656.35,248h68.23v68H656.35Zm80.28-12h-92.3v80H202.87v52h180.6v51.19l-57,56.8H303.2v72H475.77v-72H452.49l-57-56.8V368H644.33v368H556v-120H222.92v332H796.83v-212h-60.2V368H877.09V316H736.63Z"/></g><path class="cls-3" d="M315.46,827.89h28.11v28H315.46Zm-12,40h52.17v-52H303.42Z"/><path class="cls-6" d="M315.46,827.91h28.11v28H315.46Zm-12,40h52.17v-52H303.41Z"/><path class="cls-3" d="M435.84,827.89h28.11v28H435.84Zm-12,40H476v-52H423.79Z"/><path class="cls-6" d="M435.84,827.91h28.08v28H435.84Zm-12,40H476v-52H423.8Z"/><path class="cls-3" d="M692.81,855.9H664.7v-28h28.11Zm12-40H652.65v52h52.17Z"/><path class="cls-6" d="M692.79,855.88H664.71v-28h28.08Zm12-40H652.66v52h52.17Z"/><path class="cls-3" d="M580.14,855.9H552v-28h28.11Zm12-40H540v52h52.17Z"/><path class="cls-6" d="M580.12,855.88H552v-28h28.11Zm12-40H540v52h52.17Z"/><path class="cls-3" d="M435.84,707.9h28.11v28H435.84Zm-12,40H476v-52H423.79Z"/><path class="cls-6" d="M435.84,707.92h28.08v28H435.84Zm-12,40H476v-52H423.8Z"/><path class="cls-3" d="M315.46,707.9h28.11v28H315.46Zm-12,40h52.17v-52H303.42Z"/><path class="cls-6" d="M315.46,707.92h28.11v28H315.46Zm-12,40h52.17v-52H303.41Z"/></svg>