<svg id="Layer_1" data-name="Layer 1" xmlns="http://www.w3.org/2000/svg" viewBox="0 0 1080 1080"><defs><style>.cls-1{fill:#fff;}</style></defs><title>Portal Icons</title><path class="cls-1" d="M-1.87-.57A3.44,3.44,0,0,1,.5-3.5C1.35-3.86,1-5.26.11-4.9c-1.86.78-3.37,2.2-3.43,4.33,0,.94,1.42.93,1.45,0"/><path class="cls-1" d="M2.45.93A1.07,1.07,0,1,1,.31.93a1.07,1.07,0,0,1,2.14,0"/><path class="cls-1" d="M350.42,386.34c17.72-54.38,77.79-76.91,129.47-85.62,27.89-4.66,16-46.91-11.64-42.31C400,269.9,330.82,305.07,308.14,374.64c-8.8,27,33.54,38.47,42.28,11.7"/><path class="cls-1" d="M504.57,490.85C500,569,549.7,635.63,618.74,667.75c25.44,11.85,47.75-26,22.11-37.9-56-26.07-96.12-75.12-92.43-139,1.66-28.28-42.19-28.16-43.85,0"/><path class="cls-1" d="M674.63,269.94c27,24.5,40.41,57.8,37.41,94.18-2.27,28.22,41.62,28,43.88,0,3.84-46.94-15.52-93.67-50.3-125.18-20.87-19-52,11.95-31,31"/><path class="cls-1" d="M321.63,881.92c35.69-32.81,80.54-40.16,127.42-35.6,28.16,2.75,27.89-41.13,0-43.89-58.73-5.75-114.44,8-158.45,48.45-20.84,19.2,10.25,50.14,31,31"/><path class="cls-1" d="M723.2,827.95c1.33-42.91,34.05-72.8,71.65-88.52,25.71-10.74,14.46-53.2-11.64-42.31-56.31,23.56-101.86,66.48-103.83,130.84-.91,28.28,42.95,28.19,43.82,0"/><path class="cls-1" d="M173,566.58c46,21.47,66.78,77.46,63.69,125.82-1.78,28.31,42.1,28.1,43.88,0,3.93-62.48-26.4-136.13-85.47-163.68-25.44-11.95-47.69,25.89-22.11,37.86"/><path class="cls-1" d="M434.06,464.53c0,43.19-64.81,43.19-64.81,0s64.81-43.25,64.81,0"/><path class="cls-1" d="M221.58,804.82c0,43.19-64.84,43.19-64.84,0s64.84-43.19,64.84,0"/><path class="cls-1" d="M551.64,701.63c0,43.25-64.81,43.25-64.81,0s64.81-43.19,64.81,0"/><path class="cls-1" d="M853.82,873.33c0,43.25-64.81,43.25-64.81,0s64.81-43.19,64.81,0"/><path class="cls-1" d="M600.5,309.29c0,43.19-64.81,43.19-64.81,0s64.81-43.25,64.81,0"/><path class="cls-1" d="M744.82,501.46c0,43.19-64.81,43.19-64.81,0s64.81-43.19,64.81,0"/><path class="cls-1" d="M254,299.77c0,43.19-64.81,43.19-64.81,0s64.81-43.25,64.81,0"/><polygon class="cls-1" points="358.1 632.99 399.19 586.93 445.26 628 404.16 674.09 358.1 632.99"/><polygon class="cls-1" points="777.86 435.01 818.96 388.95 865.03 430.02 823.92 476.11 777.86 435.01"/><polygon class="cls-1" points="755.5 615.89 783.46 569.83 814.79 610.9 786.83 657 755.5 615.89"/><polygon class="cls-1" points="177.99 435.01 219.09 388.95 265.15 430.02 224.05 476.11 177.99 435.01"/><path class="cls-1" d="M600.28,873.33c0,43.25-64.81,43.25-64.81,0s64.81-43.19,64.81,0"/><polygon class="cls-1" points="280.13 238.49 321.23 192.43 367.29 233.5 326.19 279.6 280.13 238.49"/></svg>