<svg id="Layer_1" data-name="Layer 1" xmlns="http://www.w3.org/2000/svg" xmlns:xlink="http://www.w3.org/1999/xlink" viewBox="0 0 1080 1080"><defs><style>.cls-1,.cls-3{fill:none;}.cls-2{clip-path:url(#clip-path);}.cls-3{stroke:#fff;stroke-linecap:round;stroke-linejoin:round;stroke-width:38px;}</style><clipPath id="clip-path"><rect class="cls-1" x="53.32" y="224.98" width="948.93" height="630.03"/></clipPath></defs><title>Portal Icons</title><g class="cls-2"><path class="cls-3" d="M981.22,611.18c0-122.8-96.37-222.31-215.25-222.31a206.63,206.63,0,0,0-48.81,6C673,306.51,583.92,246,481,246c-144.33,0-261.56,118.91-265.42,267C136.45,520,74.31,588.4,74.31,671.9c0,77.8,53.9,145.47,125.22,159.59l533.58,2c8.93,1.17,23.61,0,32.85,0a204.84,204.84,0,0,0,27.26-2h1v-.13C899.72,817,981.22,724,981.22,611.18Z"/></g></svg>