<svg id="Layer_1" data-name="Layer 1" xmlns="http://www.w3.org/2000/svg" xmlns:xlink="http://www.w3.org/1999/xlink" viewBox="0 0 1080 1080"><defs><style>.cls-1{fill:none;}.cls-2{clip-path:url(#clip-path);}.cls-3{fill:#ffefc7;}.cls-4{fill:#fff;}</style><clipPath id="clip-path"><rect class="cls-1" x="220.66" y="277.69" width="735.61" height="625.94"/></clipPath></defs><title>Portal Icons</title><g class="cls-2"><path class="cls-3" d="M924.31,727c0,31.32-190.3,144.64-280.1,144.64-45.51,0-106.87-28.91-156.13-52.19-35.07-16.47-63.29-29.72-83-32V645.19c85.54,1.2,126.67,27.54,156.64,46.81,17.35,11,31,19.75,47.41,19.75,4.33,0,9.94-.22,16.2-.48,27.81-1,80-2.88,96.1,15.72a20.18,20.18,0,0,1,4.28,9.54H527A15.23,15.23,0,1,0,527,767H739.26c35.4,7.93,72.15-22,104.79-48.49,15.24-12.49,36.12-29.62,44.06-29.62,25.08,0,36.2,11.77,36.2,38.08M374.57,827.88H252.63V584.25H374.57ZM954.77,727c0-43.56-24.28-68.52-66.71-68.52-18.73,0-38.48,16-63.33,36.45-21.8,17.75-47.86,39.1-68.17,42.51A49.52,49.52,0,0,0,744.37,707c-25.58-29.59-82.64-27.49-120.21-26.18-5.83.28-10.94.45-15.07.45-7.48,0-17.8-6.63-30.94-15-31.22-20-78.43-50.29-172.78-51.59l-.33.07V569a15.25,15.25,0,0,0-15.22-15.22H237.39A15.25,15.25,0,0,0,222.14,569V843.13a15.28,15.28,0,0,0,15.25,15.22H389.82A15.25,15.25,0,0,0,405,843.13v-25c15.22,3.05,43,16.15,70,28.91,52,24.56,116.86,55.12,169.18,55.12,81.51,0,310.59-110.5,310.59-175.16"/><path class="cls-4" d="M924.31,727c0,31.32-190.3,144.64-280.1,144.64-45.51,0-106.87-28.91-156.13-52.19-35.07-16.47-63.29-29.72-83-32V645.19c85.54,1.2,126.67,27.54,156.64,46.81,17.35,11,31,19.75,47.41,19.75,4.33,0,9.94-.22,16.2-.48,27.81-1,80-2.88,96.1,15.72a20.18,20.18,0,0,1,4.28,9.54H527A15.23,15.23,0,1,0,527,767H739.26c35.4,7.93,72.15-22,104.79-48.49,15.24-12.49,36.12-29.62,44.06-29.62,25.08,0,36.2,11.77,36.2,38.08M374.57,827.88H252.63V584.25H374.57ZM954.77,727c0-43.56-24.28-68.52-66.71-68.52-18.73,0-38.48,16-63.33,36.45-21.8,17.75-47.86,39.1-68.17,42.51A49.52,49.52,0,0,0,744.37,707c-25.58-29.59-82.64-27.49-120.21-26.18-5.83.28-10.94.45-15.07.45-7.48,0-17.8-6.63-30.94-15-31.22-20-78.43-50.29-172.78-51.59l-.33.07V569a15.25,15.25,0,0,0-15.22-15.22H237.39A15.25,15.25,0,0,0,222.14,569V843.13a15.28,15.28,0,0,0,15.25,15.22H389.82A15.25,15.25,0,0,0,405,843.13v-25c15.22,3.05,43,16.15,70,28.91,52,24.56,116.86,55.12,169.18,55.12,81.51,0,310.59-110.5,310.59-175.16"/><path class="cls-3" d="M694.94,309.45a15.35,15.35,0,0,0-15.17,15.14,15.19,15.19,0,0,0,15.17,15.14h91.2a15.21,15.21,0,0,0,15.2-15.14,15.37,15.37,0,0,0-15.2-15.14ZM786.13,370h-91.2a45.42,45.42,0,1,1,0-90.85h91.2a45.42,45.42,0,1,1,0,90.85"/><path class="cls-4" d="M694.94,309.45a15.35,15.35,0,0,0-15.17,15.14,15.19,15.19,0,0,0,15.17,15.14h91.2a15.21,15.21,0,0,0,15.2-15.14,15.37,15.37,0,0,0-15.2-15.14ZM786.13,370h-91.2a45.42,45.42,0,1,1,0-90.85h91.2a45.42,45.42,0,1,1,0,90.85"/><path class="cls-3" d="M542.36,431.51a15.35,15.35,0,0,0-15.17,15.14,15.19,15.19,0,0,0,15.17,15.14h91.2a15.21,15.21,0,0,0,15.2-15.14,15.37,15.37,0,0,0-15.2-15.14Zm91.2,60.55h-91.2a45.42,45.42,0,1,1,0-90.85h91.2a45.42,45.42,0,1,1,0,90.85"/><path class="cls-4" d="M542.36,431.51a15.35,15.35,0,0,0-15.17,15.14,15.19,15.19,0,0,0,15.17,15.14h91.2a15.21,15.21,0,0,0,15.2-15.14,15.37,15.37,0,0,0-15.2-15.14Zm91.2,60.55h-91.2a45.42,45.42,0,1,1,0-90.85h91.2a45.42,45.42,0,1,1,0,90.85"/><path class="cls-3" d="M694.94,553.57a15.35,15.35,0,0,0-15.17,15.14,15.19,15.19,0,0,0,15.17,15.14h91.2a15.21,15.21,0,0,0,15.2-15.14,15.37,15.37,0,0,0-15.2-15.14Zm91.2,60.55h-91.2a45.42,45.42,0,1,1,0-90.85h91.2a45.42,45.42,0,1,1,0,90.85"/><path class="cls-4" d="M694.94,553.57a15.35,15.35,0,0,0-15.17,15.14,15.19,15.19,0,0,0,15.17,15.14h91.2a15.21,15.21,0,0,0,15.2-15.14,15.37,15.37,0,0,0-15.2-15.14Zm91.2,60.55h-91.2a45.42,45.42,0,1,1,0-90.85h91.2a45.42,45.42,0,1,1,0,90.85"/></g></svg>