<svg id="Layer_1" data-name="Layer 1" xmlns="http://www.w3.org/2000/svg" xmlns:xlink="http://www.w3.org/1999/xlink" viewBox="0 0 1080 1080"><defs><style>.cls-1{fill:none;}.cls-2{clip-path:url(#clip-path);}.cls-3{fill:#fff;}</style><clipPath id="clip-path"><rect class="cls-1" x="168.3" y="203.79" width="770.51" height="672.42"/></clipPath></defs><title>Portal Icons</title><g class="cls-2"><path class="cls-3" d="M938.55,397.65,909.92,203.83,718.78,258.77a25.91,25.91,0,1,0,14.31,49.8l95-27.29L654.47,553.08,545.27,409.19,410.68,695.11l-93.8-87.71L211.48,794V207.17H168.3v669h723V833.07H248.9l80.66-142.88,97.7,91.38L555.69,508.69l102.38,135L872.86,307.46l14.41,97.73a25.9,25.9,0,0,0,25.59,22.11l3.83-.26a25.94,25.94,0,0,0,21.86-29.39"/></g></svg>