<svg id="Layer_1" data-name="Layer 1" xmlns="http://www.w3.org/2000/svg" xmlns:xlink="http://www.w3.org/1999/xlink" viewBox="0 0 1080 1080"><defs><style>.cls-1{fill:none;}.cls-2{clip-path:url(#clip-path);}.cls-3{fill:#fbceba;}.cls-4{fill:#fff;}</style><clipPath id="clip-path"><rect class="cls-1" x="132.76" y="230.13" width="790.04" height="696.77"/></clipPath></defs><title>Portal Icons</title><g class="cls-2"><path class="cls-3" d="M685.09,917.81a21,21,0,0,0,20.71-20.68V729.84l-.86-4.31L652.3,489.26c-1.74-9.48-10.37-16.39-20.71-16.39s-18.11,6.91-20.71,16.39L558.25,725.53l-.88,4.31V898a20.72,20.72,0,0,0,41.44,0V732.44l31-141.44,31.07,141.44V898c3.46,11.2,13,19.82,24.16,19.82M286.44,363.36a31,31,0,1,0,31-31,30.91,30.91,0,0,0-31,31m210.52,0a31.07,31.07,0,1,0,31.07-31c-17.25-.88-31.07,13.8-31.07,31m209.72,0a31.06,31.06,0,1,0,31-31c-17.25-.88-31,13.8-31,31M142.33,450.47c-5.19-10.37-.86-23.3,9.48-27.59l94.93-47.44a63.78,63.78,0,0,1-.88-12.94,73.36,73.36,0,0,1,146.71,0,51.67,51.67,0,0,1-.88,11.2l72.49,24.16c-6-10.34-8.6-22.42-8.6-35.36a73.34,73.34,0,0,1,146.69,0,79,79,0,0,1-8.65,35.36l72.51-24.16c-.88-3.43-.88-6.88-.88-11.2a73.45,73.45,0,1,1,19,49.13L535.8,460.81c-1.71.86-4.31.86-6.91.86a19,19,0,0,1-6.89-.86l-149.28-48.3-.86.86,66.43,66.41,1.71,2.57.88.86,1.72,3.48v.86l.88,2.57L496.1,726.38l.86,4.31V898.87a20.69,20.69,0,0,1-41.39,0V732.44L424.5,591,393.43,732.44V898A20.71,20.71,0,0,1,352,898V729.84l.86-4.31,47.47-225.07-66.46-66.38a95.54,95.54,0,0,1-15.54,1.71,73.18,73.18,0,0,1-53.49-23.28L169.95,460a17.55,17.55,0,0,1-9.51,2.57,22.74,22.74,0,0,1-18.11-12.05m91.45,38.79a20.81,20.81,0,1,0-40.53,9.48L245,732.44V898a20.72,20.72,0,0,0,41.44,0V729.84l-.86-4.31ZM769.65,725.53l55.23-262.14,1.71-4.29,47.47-100.91V258.14a20.71,20.71,0,0,1,41.41,0V362.5a25.83,25.83,0,0,1-1.71,8.62L865.42,474.61,811.07,732.44V898a20.71,20.71,0,0,1-41.41,0V725.53Z"/><path class="cls-4" d="M685.09,917.81a21,21,0,0,0,20.71-20.68V729.84l-.86-4.31L652.3,489.26c-1.74-9.48-10.37-16.39-20.71-16.39s-18.11,6.91-20.71,16.39L558.25,725.53l-.88,4.31V898a20.72,20.72,0,0,0,41.44,0V732.44l31-141.44,31.07,141.44V898c3.46,11.2,13,19.82,24.16,19.82M286.44,363.36a31,31,0,1,0,31-31,30.91,30.91,0,0,0-31,31m210.52,0a31.07,31.07,0,1,0,31.07-31c-17.25-.88-31.07,13.8-31.07,31m209.72,0a31.06,31.06,0,1,0,31-31c-17.25-.88-31,13.8-31,31M142.33,450.47c-5.19-10.37-.86-23.3,9.48-27.59l94.93-47.44a63.78,63.78,0,0,1-.88-12.94,73.36,73.36,0,0,1,146.71,0,51.67,51.67,0,0,1-.88,11.2l72.49,24.16c-6-10.34-8.6-22.42-8.6-35.36a73.34,73.34,0,0,1,146.69,0,79,79,0,0,1-8.65,35.36l72.51-24.16c-.88-3.43-.88-6.88-.88-11.2a73.45,73.45,0,1,1,19,49.13L535.8,460.81c-1.71.86-4.31.86-6.91.86a19,19,0,0,1-6.89-.86l-149.28-48.3-.86.86,66.43,66.41,1.71,2.57.88.86,1.72,3.48v.86l.88,2.57L496.1,726.38l.86,4.31V898.87a20.69,20.69,0,0,1-41.39,0V732.44L424.5,591,393.43,732.44V898A20.71,20.71,0,0,1,352,898V729.84l.86-4.31,47.47-225.07-66.46-66.38a95.54,95.54,0,0,1-15.54,1.71,73.18,73.18,0,0,1-53.49-23.28L169.95,460a17.55,17.55,0,0,1-9.51,2.57,22.74,22.74,0,0,1-18.11-12.05m91.45,38.79a20.81,20.81,0,1,0-40.53,9.48L245,732.44V898a20.72,20.72,0,0,0,41.44,0V729.84l-.86-4.31ZM769.65,725.53l55.23-262.14,1.71-4.29,47.47-100.91V258.14a20.71,20.71,0,0,1,41.41,0V362.5a25.83,25.83,0,0,1-1.71,8.62L865.42,474.61,811.07,732.44V898a20.71,20.71,0,0,1-41.41,0V725.53Z"/><path class="cls-1" d="M685.09,917.81a21,21,0,0,0,20.71-20.68V729.84l-.86-4.31L652.3,489.26c-1.74-9.48-10.37-16.39-20.71-16.39s-18.11,6.91-20.71,16.39L558.25,725.53l-.88,4.31V898a20.72,20.72,0,0,0,41.44,0V732.44l31-141.44,31.07,141.44V898C664.38,909.18,673.89,917.81,685.09,917.81ZM286.44,363.36a31,31,0,1,0,31-31A30.91,30.91,0,0,0,286.44,363.36Zm210.52,0a31.07,31.07,0,1,0,31.07-31C510.78,331.43,497,346.11,497,363.36Zm209.72,0a31.06,31.06,0,1,0,31-31C720.47,331.43,706.68,346.11,706.68,363.36ZM142.33,450.47c-5.19-10.37-.86-23.3,9.48-27.59l94.93-47.44a63.78,63.78,0,0,1-.88-12.94,73.36,73.36,0,0,1,146.71,0,51.67,51.67,0,0,1-.88,11.2l72.49,24.16c-6-10.34-8.6-22.42-8.6-35.36a73.34,73.34,0,0,1,146.69,0,79,79,0,0,1-8.65,35.36l72.51-24.16c-.88-3.43-.88-6.88-.88-11.2a73.45,73.45,0,1,1,19,49.13L535.8,460.81c-1.71.86-4.31.86-6.91.86a19,19,0,0,1-6.89-.86l-149.28-48.3-.86.86,66.43,66.41,1.71,2.57.88.86,1.72,3.48v.86l.88,2.57L496.1,726.38l.86,4.31V898.87a20.69,20.69,0,0,1-41.39,0V732.44L424.5,591,393.43,732.44V898A20.71,20.71,0,0,1,352,898V729.84l.86-4.31,47.47-225.07-66.46-66.38a95.54,95.54,0,0,1-15.54,1.71,73.18,73.18,0,0,1-53.49-23.28L169.95,460a17.55,17.55,0,0,1-9.51,2.57A22.74,22.74,0,0,1,142.33,450.47Zm91.45,38.79a20.81,20.81,0,1,0-40.53,9.48L245,732.44V898a20.72,20.72,0,0,0,41.44,0V729.84l-.86-4.31ZM769.65,725.53l55.23-262.14,1.71-4.29,47.47-100.91V258.14a20.71,20.71,0,0,1,41.41,0V362.5a25.83,25.83,0,0,1-1.71,8.62L865.42,474.61,811.07,732.44V898a20.71,20.71,0,0,1-41.41,0V725.53Z"/></g></svg>