<svg id="Layer_1" data-name="Layer 1" xmlns="http://www.w3.org/2000/svg" xmlns:xlink="http://www.w3.org/1999/xlink" viewBox="0 0 1080 1080"><defs><style>.cls-1{fill:none;}.cls-2{clip-path:url(#clip-path);}.cls-3{fill:#fff;}</style><clipPath id="clip-path"><rect class="cls-1" x="183.69" y="214.35" width="752.63" height="752.63"/></clipPath></defs><title>Portal Icons</title><g class="cls-2"><path class="cls-3" d="M750.84,781.48A269.84,269.84,0,0,1,290.18,590.66c0-148.8,121.07-269.84,269.84-269.84s269.84,121,269.84,269.84a268.1,268.1,0,0,1-79,190.81M560,240.27c-193.52,0-350.4,156.88-350.4,350.4S366.5,941.06,560,941.06s350.4-156.88,350.4-350.4S753.54,240.27,560,240.27"/><path class="cls-1" d="M750.84,781.48A269.84,269.84,0,0,1,290.18,590.66c0-148.8,121.07-269.84,269.84-269.84s269.84,121,269.84,269.84A268.1,268.1,0,0,1,750.84,781.48ZM560,240.27c-193.52,0-350.4,156.88-350.4,350.4S366.5,941.06,560,941.06s350.4-156.88,350.4-350.4S753.54,240.27,560,240.27Z"/><path class="cls-3" d="M558.87,700C499,700,450.28,650.89,450.28,590.54S499,481.14,558.87,481.14c43.61,0,81.29,26.06,98.55,63.55H740c-20.31-81.76-93.67-142.33-181.14-142.33-103.15,0-186.75,84.27-186.75,188.18s83.61,188.21,186.75,188.21c87.57,0,161.06-60.77,181.24-142.75h-82.5c-17.18,37.73-55,64-98.74,64"/><path class="cls-1" d="M558.87,700C499,700,450.28,650.89,450.28,590.54S499,481.14,558.87,481.14c43.61,0,81.29,26.06,98.55,63.55H740c-20.31-81.76-93.67-142.33-181.14-142.33-103.15,0-186.75,84.27-186.75,188.18s83.61,188.21,186.75,188.21c87.57,0,161.06-60.77,181.24-142.75h-82.5C640.43,673.72,602.65,700,558.87,700Z"/></g></svg>