<svg id="Layer_1" data-name="Layer 1" xmlns="http://www.w3.org/2000/svg" xmlns:xlink="http://www.w3.org/1999/xlink" viewBox="0 0 1080 1080"><defs><style>.cls-1{fill:none;}.cls-2{clip-path:url(#clip-path);}.cls-3{fill:#fff;}</style><clipPath id="clip-path"><rect class="cls-1" x="223.7" y="291.36" width="738.04" height="574.32"/></clipPath></defs><title>Portal Icons</title><g class="cls-2"><path class="cls-3" d="M324.35,545.86l-20.27-15.19L467,318.86a80.55,80.55,0,0,1,87.77-22.78L800.28,407.47l-10.12,22.78L545.44,319.71a52.66,52.66,0,0,0-58.21,15.19Z"/><path class="cls-3" d="M841.65,417.6a50.45,50.45,0,0,0-11,1.67L283,555.15c-11.81,3.36-22,10.12-28.69,21.08s-8.43,22.8-5,34.61l48.09,194.11c5,20.24,23.62,35.41,44.73,35.41a49.14,49.14,0,0,0,11-1.67L900.72,702c11.81-3.36,21.93-10.12,28.69-21.08s8.43-22.8,5-34.61L886.38,452.19a46.13,46.13,0,0,0-44.73-34.58M342.92,865.69h0c-32.92,0-61.59-21.93-69.2-54L225.61,617.6c-4.23-18.57-1.69-38,8.43-54a75.16,75.16,0,0,1,43.88-32.9L825.61,394a63,63,0,0,1,16.88-2.54c32.92,0,61.59,21.93,69.2,54l48.08,194.08c4.23,18.55,1.69,38-8.43,54S926,721.38,907.46,726.46L359.77,863.15a62.83,62.83,0,0,1-16.86,2.54"/><path class="cls-3" d="M852.61,665.69,379.21,783.85a37.89,37.89,0,0,1-45.57-27l-29.54-119a37.87,37.87,0,0,1,27-45.57L804.52,474.15a37.85,37.85,0,0,1,45.55,27l29.54,119c5.07,20.24-6.74,40.53-27,45.57"/></g></svg>