<svg id="Layer_1" data-name="Layer 1" xmlns="http://www.w3.org/2000/svg" xmlns:xlink="http://www.w3.org/1999/xlink" viewBox="0 0 1080 1080"><defs><style>.cls-1,.cls-5{fill:none;}.cls-2{clip-path:url(#clip-path);}.cls-3{fill:#d7f0f9;}.cls-4{fill:#fff;}.cls-5{stroke:#5ccaed;stroke-miterlimit:10;stroke-width:0.3px;}</style><clipPath id="clip-path"><rect class="cls-1" x="102.86" y="227.42" width="874.28" height="729.03"/></clipPath></defs><title>Portal Icons</title><g class="cls-2"><path class="cls-3" d="M922.73,482.62l-80.26,41.76c-50.54,26.4-86.84,75.85-96.73,131.92l-9.9,58.26c-2.18,9.9,3.32,19.79,12.1,24.2l57.18,26.37-81.35,35.18c-3.31-11-8.81-20.88-17.59-27.49-18.7-14.3-41.79-12.1-59.35-9.9-4.43,0-11,1.09-15.41,1.09-4.38-27.46-18.68-48.34-40.67-56l-3.29-1.11,25.29-36.27L682,702.46c6.61,3.31,13.19,2.23,18.7,0a28.52,28.52,0,0,0,12.1-15.39l8.76-39.56C734.76,587,773.23,536.5,828.2,509l69.25-36.3c5.52-3.29,9.9-4.4,14.3-4.4,8.78,0,13.19,5.49,14.3,9.92-1.11,3.29-2.23,3.29-3.32,4.38M483,902.53c-7.69,3.29-14.3-2.18-17.61-6.6-2.18-3.29-3.29-7.67-1.09-13.19l85.75-124.22c8.81-7.67,18.68-11,24.2-8.78s9.87,11,12.1,23.08c5.49,40.67,45.05,36.29,63.76,34.07,8.78-1.09,23.06-2.18,27.49,1.11,1.09,0,3.29,3.32,4.38,9.9ZM909.55,424.35a68.09,68.09,0,0,0-35.18,9.9l-69.25,35.18C738,503.5,691.88,565.05,676.49,638.7l-2.2,13.21-60.46-28.6c-9.9-4.38-20.88-1.09-27.46,7.69L428,859.66l-1.11,2.2c-9.87,18.7-9.87,39.59,1.11,57.18s29.69,28.57,49.46,28.57a55.62,55.62,0,0,0,22-4.4L867.78,784.92a21.45,21.45,0,0,0,0-39.58l-86.84-39.56,7.67-40.7c7.72-42.85,35.18-81.32,73.65-101.12l81.35-41.76c19.82-11,28.6-31.89,23.11-53.88-6.61-26.37-29.69-44-57.17-44"/><path class="cls-4" d="M922.73,482.62l-80.26,41.76c-50.54,26.4-86.84,75.85-96.73,131.92l-9.9,58.26c-2.18,9.9,3.32,19.79,12.1,24.2l57.18,26.37-81.35,35.18c-3.31-11-8.81-20.88-17.59-27.49-18.7-14.3-41.79-12.1-59.35-9.9-4.43,0-11,1.09-15.41,1.09-4.38-27.46-18.68-48.34-40.67-56l-3.29-1.11,25.29-36.27L682,702.46c6.61,3.31,13.19,2.23,18.7,0a28.52,28.52,0,0,0,12.1-15.39l8.76-39.56C734.76,587,773.23,536.5,828.2,509l69.25-36.3c5.52-3.29,9.9-4.4,14.3-4.4,8.78,0,13.19,5.49,14.3,9.92-1.11,3.29-2.23,3.29-3.32,4.38M483,902.53c-7.69,3.29-14.3-2.18-17.61-6.6-2.18-3.29-3.29-7.67-1.09-13.19l85.75-124.22c8.81-7.67,18.68-11,24.2-8.78s9.87,11,12.1,23.08c5.49,40.67,45.05,36.29,63.76,34.07,8.78-1.09,23.06-2.18,27.49,1.11,1.09,0,3.29,3.32,4.38,9.9ZM909.55,424.35a68.09,68.09,0,0,0-35.18,9.9l-69.25,35.18C738,503.5,691.88,565.05,676.49,638.7l-2.2,13.21-60.46-28.6c-9.9-4.38-20.88-1.09-27.46,7.69L428,859.66l-1.11,2.2c-9.87,18.7-9.87,39.59,1.11,57.18s29.69,28.57,49.46,28.57a55.62,55.62,0,0,0,22-4.4L867.78,784.92a21.45,21.45,0,0,0,0-39.58l-86.84-39.56,7.67-40.7c7.72-42.85,35.18-81.32,73.65-101.12l81.35-41.76c19.82-11,28.6-31.89,23.11-53.88-6.61-26.37-29.69-44-57.17-44"/><path class="cls-5" d="M922.73,482.62l-80.26,41.76c-50.54,26.4-86.84,75.85-96.73,131.92l-9.9,58.26c-2.18,9.9,3.32,19.79,12.1,24.2l57.18,26.37-81.35,35.18c-3.31-11-8.81-20.88-17.59-27.49-18.7-14.3-41.79-12.1-59.35-9.9-4.43,0-11,1.09-15.41,1.09-4.38-27.46-18.68-48.34-40.67-56l-3.29-1.11,25.29-36.27L682,702.46c6.61,3.31,13.19,2.23,18.7,0a28.52,28.52,0,0,0,12.1-15.39l8.76-39.56C734.76,587,773.23,536.5,828.2,509l69.25-36.3c5.52-3.29,9.9-4.4,14.3-4.4,8.78,0,13.19,5.49,14.3,9.92C924.93,481.53,923.82,481.53,922.73,482.62ZM483,902.53c-7.69,3.29-14.3-2.18-17.61-6.6-2.18-3.29-3.29-7.67-1.09-13.19l85.75-124.22c8.81-7.67,18.68-11,24.2-8.78s9.87,11,12.1,23.08c5.49,40.67,45.05,36.29,63.76,34.07,8.78-1.09,23.06-2.18,27.49,1.11,1.09,0,3.29,3.32,4.38,9.9ZM909.55,424.35a68.09,68.09,0,0,0-35.18,9.9l-69.25,35.18C738,503.5,691.88,565.05,676.49,638.7l-2.2,13.21-60.46-28.6c-9.9-4.38-20.88-1.09-27.46,7.69L428,859.66l-1.11,2.2c-9.87,18.7-9.87,39.59,1.11,57.18s29.69,28.57,49.46,28.57a55.62,55.62,0,0,0,22-4.4L867.78,784.92a21.45,21.45,0,0,0,0-39.58l-86.84-39.56,7.67-40.7c7.72-42.85,35.18-81.32,73.65-101.12l81.35-41.76c19.82-11,28.6-31.89,23.11-53.88C960.12,441.94,937,424.35,909.55,424.35Z"/><path class="cls-3" d="M255.27,523.16,392.7,566v84.64L255.27,607.82ZM527.93,284.61l130.85,40.67L409.2,525.36,278.35,484.69Zm154,152.8L435.57,634.2V560.54L681.89,363.76ZM242.08,649.59,368.5,689.17l-68.16,56.06c-9.9,7.69-11,22-3.29,30.78a21.25,21.25,0,0,0,16.5,7.69,19.73,19.73,0,0,0,14.3-5.49l100-82.46,1.11-1.09L718.16,462.72l100.05-82.46c9.9-7.69,11-22,3.29-30.78-7.7-9.9-22-11-30.78-3.32L727,398.94V311l-2.2-5.52-1.11-1.09-2.2-3.32L720.36,300l-4.4-3.29h-1.11l-4.38-2.2h-1.11L527.93,237.34c-6.58-2.18-14.27-1.09-20.88,3.29L219,475.91V477l-3.29,3.29-1.09,1.09-2.2,4.4v1.11l-1.11,4.4V618.81L120,694.66c-9.9,7.7-11,22-3.31,30.78a21.22,21.22,0,0,0,16.53,7.69,19.78,19.78,0,0,0,14.28-5.49Z"/><path class="cls-4" d="M255.27,523.16,392.7,566v84.64L255.27,607.82ZM527.93,284.61l130.85,40.67L409.2,525.36,278.35,484.69Zm154,152.8L435.57,634.2V560.54L681.89,363.76ZM242.08,649.59,368.5,689.17l-68.16,56.06c-9.9,7.69-11,22-3.29,30.78a21.25,21.25,0,0,0,16.5,7.69,19.73,19.73,0,0,0,14.3-5.49l100-82.46,1.11-1.09L718.16,462.72l100.05-82.46c9.9-7.69,11-22,3.29-30.78-7.7-9.9-22-11-30.78-3.32L727,398.94V311l-2.2-5.52-1.11-1.09-2.2-3.32L720.36,300l-4.4-3.29h-1.11l-4.38-2.2h-1.11L527.93,237.34c-6.58-2.18-14.27-1.09-20.88,3.29L219,475.91V477l-3.29,3.29-1.09,1.09-2.2,4.4v1.11l-1.11,4.4V618.81L120,694.66c-9.9,7.7-11,22-3.31,30.78a21.22,21.22,0,0,0,16.53,7.69,19.78,19.78,0,0,0,14.28-5.49Z"/><path class="cls-5" d="M255.27,523.16,392.7,566v84.64L255.27,607.82ZM527.93,284.61l130.85,40.67L409.2,525.36,278.35,484.69Zm154,152.8L435.57,634.2V560.54L681.89,363.76ZM242.08,649.59,368.5,689.17l-68.16,56.06c-9.9,7.69-11,22-3.29,30.78a21.25,21.25,0,0,0,16.5,7.69,19.73,19.73,0,0,0,14.3-5.49l100-82.46,1.11-1.09L718.16,462.72l100.05-82.46c9.9-7.69,11-22,3.29-30.78-7.7-9.9-22-11-30.78-3.32L727,398.94V311l-2.2-5.52-1.11-1.09-2.2-3.32L720.36,300l-4.4-3.29h-1.11l-4.38-2.2h-1.11L527.93,237.34c-6.58-2.18-14.27-1.09-20.88,3.29L219,475.91V477l-3.29,3.29-1.09,1.09-2.2,4.4v1.11l-1.11,4.4V618.81L120,694.66c-9.9,7.7-11,22-3.31,30.78a21.22,21.22,0,0,0,16.53,7.69,19.78,19.78,0,0,0,14.28-5.49Z"/></g></svg>