<svg id="Layer_1" data-name="Layer 1" xmlns="http://www.w3.org/2000/svg" xmlns:xlink="http://www.w3.org/1999/xlink" viewBox="0 0 1080 1080"><defs><style>.cls-1{fill:none;}.cls-2{clip-path:url(#clip-path);}.cls-3{fill:#ffefc7;}.cls-4{fill:#fff;}</style><clipPath id="clip-path"><rect class="cls-1" x="268.12" y="191" width="570.86" height="749.03"/></clipPath></defs><title>Portal Icons</title><g class="cls-2"><path class="cls-3" d="M831.55,476.58c-3.92,3.92-8.79,5.86-12.71,5.86a15.71,15.71,0,0,1-12.69-5.86L774.95,445.3v41.06C774.95,565.5,710.51,630,630.48,630h-164C407,630,359.12,677.9,359.12,736.53a18.55,18.55,0,1,1-37.1,0c0-79.15,64.44-143.66,144.47-143.66h164c59.54,0,107.37-47.86,107.37-106.51V445.3l-31.23,31.28c-3.92,3.92-8.79,5.86-12.69,5.86-4.88,0-9.78-1.95-12.69-5.86-6.82-6.85-6.82-18.57,0-26.38l62.44-62.54c6.85-6.85,18.55-6.85,26.36,0l62.47,62.54c5.86,6.85,5.86,18.57-1,26.38M604.12,792.25l-38.06,38.11,38.06,38.11c6.82,6.85,6.82,18.57,0,26.38-3.89,3.92-8.77,5.86-12.69,5.86a15.71,15.71,0,0,1-12.69-5.86l-38.08-38.11-38.06,38.11c-3.89,3.92-8.77,5.86-12.69,5.86a15.71,15.71,0,0,1-12.69-5.86c-6.85-6.82-6.85-18.57,0-26.38l38.06-38.11-38.06-38.11c-6.85-6.85-6.85-18.57,0-26.41,6.82-6.82,18.55-6.82,26.36,0L541.65,804l38.08-38.13c6.82-6.82,18.52-6.82,26.33,0a22.2,22.2,0,0,1-1.95,26.41m215.71-93.82-38.06,38.11,38.06,38.13c6.85,6.82,6.85,18.55,0,26.38-3.89,3.89-8.79,5.86-12.69,5.86A15.78,15.78,0,0,1,794.46,801l-38.08-38.13L718.32,801c-3.89,3.89-8.77,5.86-12.69,5.86A15.78,15.78,0,0,1,692.95,801c-6.82-6.85-6.82-18.57,0-26.38L731,736.53l-38.06-38.11c-6.82-6.85-6.82-18.57,0-26.41,6.82-6.82,18.55-6.82,26.36,0l38.08,38.13L795.44,672c6.82-6.82,18.52-6.82,26.33,0,4.9,6.87,4.9,18.57-1.95,26.41m-407-216.94,38.06-38.13-38.06-38.11c-6.85-6.85-6.85-18.55,0-26.41,6.82-6.82,18.52-6.82,26.33,0L477.24,417l38.06-38.13c6.82-6.82,18.55-6.82,26.36,0,6.85,6.85,6.85,18.57,0,26.41l-38.06,38.11,38.06,38.13c6.85,6.82,6.85,18.55,0,26.38-3.92,3.89-8.79,5.84-12.69,5.84-4.88,0-9.75-1.95-12.69-5.84L478.2,469.73l-38.06,38.13c-3.92,3.89-8.79,5.84-12.69,5.84s-9.75-1.95-12.69-5.84C406,501,406,489.29,412.82,481.48M340.58,899.72c-18.55,0-33.18-15.62-33.18-34.19s14.63-34.19,33.18-34.19,33.2,15.62,33.2,34.19-14.66,34.19-33.2,34.19m0-104.54c-39,0-70.28,32.24-70.28,71.34s31.23,71.34,70.28,71.34,70.28-32.24,70.28-71.34-31.21-71.34-70.28-71.34M755.41,231.29c18.55,0,33.18,15.64,33.18,34.19S774,299.69,755.41,299.69s-33.21-15.64-33.21-34.22,14.66-34.19,33.21-34.19m0,104.57c39,0,70.28-32.24,70.28-71.34s-31.23-71.36-70.28-71.36-70.28,32.27-70.28,71.36,32.22,71.34,70.28,71.34"/><path class="cls-4" d="M831.55,476.58c-3.92,3.92-8.79,5.86-12.71,5.86a15.71,15.71,0,0,1-12.69-5.86L774.95,445.3v41.06C774.95,565.5,710.51,630,630.48,630h-164C407,630,359.12,677.9,359.12,736.53a18.55,18.55,0,1,1-37.1,0c0-79.15,64.44-143.66,144.47-143.66h164c59.54,0,107.37-47.86,107.37-106.51V445.3l-31.23,31.28c-3.92,3.92-8.79,5.86-12.69,5.86-4.88,0-9.78-1.95-12.69-5.86-6.82-6.85-6.82-18.57,0-26.38l62.44-62.54c6.85-6.85,18.55-6.85,26.36,0l62.47,62.54c5.86,6.85,5.86,18.57-1,26.38M604.12,792.25l-38.06,38.11,38.06,38.11c6.82,6.85,6.82,18.57,0,26.38-3.89,3.92-8.77,5.86-12.69,5.86a15.71,15.71,0,0,1-12.69-5.86l-38.08-38.11-38.06,38.11c-3.89,3.92-8.77,5.86-12.69,5.86a15.71,15.71,0,0,1-12.69-5.86c-6.85-6.82-6.85-18.57,0-26.38l38.06-38.11-38.06-38.11c-6.85-6.85-6.85-18.57,0-26.41,6.82-6.82,18.55-6.82,26.36,0L541.65,804l38.08-38.13c6.82-6.82,18.52-6.82,26.33,0a22.2,22.2,0,0,1-1.95,26.41m215.71-93.82-38.06,38.11,38.06,38.13c6.85,6.82,6.85,18.55,0,26.38-3.89,3.89-8.79,5.86-12.69,5.86A15.78,15.78,0,0,1,794.46,801l-38.08-38.13L718.32,801c-3.89,3.89-8.77,5.86-12.69,5.86A15.78,15.78,0,0,1,692.95,801c-6.82-6.85-6.82-18.57,0-26.38L731,736.53l-38.06-38.11c-6.82-6.85-6.82-18.57,0-26.41,6.82-6.82,18.55-6.82,26.36,0l38.08,38.13L795.44,672c6.82-6.82,18.52-6.82,26.33,0,4.9,6.87,4.9,18.57-1.95,26.41m-407-216.94,38.06-38.13-38.06-38.11c-6.85-6.85-6.85-18.55,0-26.41,6.82-6.82,18.52-6.82,26.33,0L477.24,417l38.06-38.13c6.82-6.82,18.55-6.82,26.36,0,6.85,6.85,6.85,18.57,0,26.41l-38.06,38.11,38.06,38.13c6.85,6.82,6.85,18.55,0,26.38-3.92,3.89-8.79,5.84-12.69,5.84-4.88,0-9.75-1.95-12.69-5.84L478.2,469.73l-38.06,38.13c-3.92,3.89-8.79,5.84-12.69,5.84s-9.75-1.95-12.69-5.84C406,501,406,489.29,412.82,481.48M340.58,899.72c-18.55,0-33.18-15.62-33.18-34.19s14.63-34.19,33.18-34.19,33.2,15.62,33.2,34.19-14.66,34.19-33.2,34.19m0-104.54c-39,0-70.28,32.24-70.28,71.34s31.23,71.34,70.28,71.34,70.28-32.24,70.28-71.34-31.21-71.34-70.28-71.34M755.41,231.29c18.55,0,33.18,15.64,33.18,34.19S774,299.69,755.41,299.69s-33.21-15.64-33.21-34.22,14.66-34.19,33.21-34.19m0,104.57c39,0,70.28-32.24,70.28-71.34s-31.23-71.36-70.28-71.36-70.28,32.27-70.28,71.36,32.22,71.34,70.28,71.34"/></g></svg>