<svg id="Layer_1" data-name="Layer 1" xmlns="http://www.w3.org/2000/svg" xmlns:xlink="http://www.w3.org/1999/xlink" viewBox="0 0 1080 1080"><defs><style>.cls-1{fill:none;}.cls-2{clip-path:url(#clip-path);}.cls-3{fill:#d7f0f9;}.cls-4{fill:#fff;}</style><clipPath id="clip-path"><rect class="cls-1" x="205.74" y="221.6" width="710.55" height="740.66"/></clipPath></defs><title>Portal Icons</title><g class="cls-2"><path class="cls-3" d="M257.53,908.57a26.93,26.93,0,0,0,39,0L501.82,695.51a258.33,258.33,0,0,1-39.44-40.25L257.53,868a29.48,29.48,0,0,0,0,40.57M872.6,488.48c0-122.17-95.75-221.58-213.44-221.58S445.78,366.31,445.78,488.48s95.75,221.6,213.41,221.6S872.6,610.7,872.6,488.48M228.66,838.06,438.83,619.8A270.39,270.39,0,0,1,405,488.48C405,343,519,224.55,659.16,224.55S913.35,343,913.35,488.48s-114,263.93-254.18,263.93a244.63,244.63,0,0,1-122.79-33L325.44,938.53a66.74,66.74,0,0,1-96.78,0c-26.65-27.71-26.65-72.81,0-100.47"/><path class="cls-4" d="M257.53,908.57a26.93,26.93,0,0,0,39,0L501.82,695.51a258.33,258.33,0,0,1-39.44-40.25L257.53,868a29.48,29.48,0,0,0,0,40.57M872.6,488.48c0-122.17-95.75-221.58-213.44-221.58S445.78,366.31,445.78,488.48s95.75,221.6,213.41,221.6S872.6,610.7,872.6,488.48M228.66,838.06,438.83,619.8A270.39,270.39,0,0,1,405,488.48C405,343,519,224.55,659.16,224.55S913.35,343,913.35,488.48s-114,263.93-254.18,263.93a244.63,244.63,0,0,1-122.79-33L325.44,938.53a66.74,66.74,0,0,1-96.78,0c-26.65-27.71-26.65-72.81,0-100.47"/></g></svg>