<svg id="Layer_1" data-name="Layer 1" xmlns="http://www.w3.org/2000/svg" xmlns:xlink="http://www.w3.org/1999/xlink" viewBox="0 0 1080 1080"><defs><style>.cls-1{fill:none;}.cls-2{clip-path:url(#clip-path);}.cls-3{fill:#fff;}</style><clipPath id="clip-path"><rect class="cls-1" x="145.4" y="197.73" width="789.2" height="761.58"/></clipPath></defs><title>Portal Icons</title><g class="cls-2"><path class="cls-3" d="M596.12,776c0-23.34,37.89-42.3,84.64-42.3s84.58,19,84.58,42.3-37.86,42.31-84.58,42.31-84.64-19-84.64-42.31m0,56.41,1.88-7.24c20.11,13.31,48.93,21.34,82.75,21.34s62.62-8,82.73-21.34l1.86,7.24c0,23.38-37.86,42.31-84.58,42.31s-84.64-18.93-84.64-42.31m0,56.44,1.88-7.27c20.11,13.31,48.93,21.34,82.75,21.34s62.62-8,82.73-21.34l1.86,7.27c0,23.35-37.86,42.31-84.58,42.31s-84.64-19-84.64-42.31m197.42-44.93V816a179.25,179.25,0,0,0,28.2,2.3c33.8,0,62.65-8,82.76-21.34l1.88,7.24c0,23.38-37.89,42.31-84.64,42.31a156.52,156.52,0,0,1-28.2-2.59m112.84-96.12c0,23.34-37.89,42.3-84.64,42.3a156.69,156.69,0,0,1-28.2-2.59V776a50.15,50.15,0,0,0-3.15-16.9,189.23,189.23,0,0,0,31.35,2.8c33.8,0,62.65-8,82.76-21.35l1.88,7.24m0-56.44c0,23.41-37.89,42.34-84.64,42.34s-84.58-18.93-84.58-42.34l1.85-7.21c20.11,13.31,49,21.35,82.73,21.35s62.65-8,82.76-21.35l1.88,7.21m0-56.41c0,23.38-37.89,42.33-84.64,42.33s-84.58-19-84.58-42.33l1.85-7.21c20.11,13.31,49,21.34,82.73,21.34s62.65-8,82.76-21.34l1.88,7.21m0-56.41c0,23.38-37.89,42.31-84.64,42.31s-84.58-18.93-84.58-42.31L739,571.3c20.11,13.31,49,21.34,82.73,21.34s62.65-8,82.76-21.34l1.88,7.21m0-56.41c0,23.38-37.89,42.33-84.64,42.33s-84.58-19-84.58-42.33l1.85-7.24c20.11,13.31,49,21.37,82.73,21.37s62.65-8.07,82.76-21.37l1.88,7.24m0-56.38c0,23.34-37.89,42.27-84.64,42.27s-84.58-18.93-84.58-42.27S775,423.4,821.74,423.4s84.64,19,84.64,42.33M567.91,776V888.81c0,40.83,47.46,70.48,112.84,70.48s112.78-29.65,112.78-70.48V872.44a183.43,183.43,0,0,0,28.2,2.24c65.39,0,112.84-29.65,112.84-70.51V465.73c0-40.89-47.46-70.54-112.84-70.54S709,424.84,709,465.73V707.64a196.66,196.66,0,0,0-28.2-2.18c-65.38,0-112.84,29.65-112.84,70.51"/><path class="cls-3" d="M243.56,902.9c-37.74,0-65.86-34.18-69.86-84.61h138c-8,48-36,84.61-68.15,84.61m550-705.15H342.27A28.23,28.23,0,0,0,314,226V790.09H173.7a28.68,28.68,0,0,0-20.93,9.16,27.61,27.61,0,0,0-7.3,20.87c5.36,66.39,44.78,111,98.09,111H511.49a14.1,14.1,0,1,0,0-28.2H302.88c23.94-25.49,39.39-66,39.39-112.81V226H793.56V338.8a14.1,14.1,0,1,0,28.2,0V226a28.21,28.21,0,0,0-28.2-28.2"/><path class="cls-3" d="M483.27,423.39A56.41,56.41,0,1,1,539.71,367a56.41,56.41,0,0,1-56.44,56.41m0,84.64-28.2,28.2,17.4-86.85a27.35,27.35,0,0,0,21.67,0l17.37,86.85Zm84.64-141a28.22,28.22,0,0,0-8.66-20.34,28.26,28.26,0,0,0-20.37-35.27,28.26,28.26,0,0,0-27.38-21.46,28.47,28.47,0,0,0-7.86,1.12,28.2,28.2,0,0,0-40.72,0l-7.86-1.12a28.31,28.31,0,0,0-27.38,21.46,28.28,28.28,0,0,0-20.34,35.27,28.17,28.17,0,0,0,0,40.69,28.28,28.28,0,0,0,20.34,35.27A28.19,28.19,0,0,0,441,440.26l4.18,1.74-17.75,88.7A28.2,28.2,0,0,0,475,556.16l8.24-8.27,8.27,8.27a28.25,28.25,0,0,0,20,8.27,28.23,28.23,0,0,0,27.64-33.74L521.43,442l4.18-1.74a28.05,28.05,0,0,0,13.28-17.66,28.26,28.26,0,0,0,20.37-35.27A28.22,28.22,0,0,0,567.91,367"/></g></svg>