<?xml version="1.0" encoding="UTF-8"?>
<svg width="100px" height="100px" viewBox="0 0 100 100" version="1.1" xmlns="http://www.w3.org/2000/svg" xmlns:xlink="http://www.w3.org/1999/xlink">
    <!-- Generator: Sketch 42 (36781) - http://www.bohemiancoding.com/sketch -->
    <title>Group</title>
    <desc>Created with Sketch.</desc>
    <defs></defs>
    <g id="Symbols" stroke="none" stroke-width="1" fill="none" fill-rule="evenodd">
        <g id="Permit-Locator-Header">
            <g id="Group">
                <circle id="Oval" fill="#FFFFFF" cx="50" cy="50" r="50"></circle>
                <g id="Page-1" transform="translate(31.000000, 17.000000)" fill="#58CAEF">
                    <path d="M1.53709834,12.7982049 L1.96594878,12.2617532 L36.4599727,12.2617532 L36.8903603,12.7982049 L36.8903603,16.0920183 C36.8903603,17.3611098 35.8574302,18.391097 34.5847127,18.391097 C33.3119953,18.391097 32.2790652,17.3611098 32.2790652,16.0920183 C32.2790652,15.2444246 31.5919823,14.5592992 30.7419669,14.5592992 C29.8919515,14.5592992 29.2048685,15.2444246 29.2048685,16.0920183 C29.2048685,17.3611098 28.1719385,18.391097 26.899221,18.391097 C25.6265036,18.391097 24.5935735,17.3611098 24.5935735,16.0920183 C24.5935735,15.2444246 23.9064905,14.5592992 23.0564752,14.5592992 C22.2064598,14.5592992 21.5193768,15.2444246 21.5193768,16.0920183 C21.5193768,17.3611098 20.4864467,18.391097 19.2137293,18.391097 C17.9410119,18.391097 16.9080818,17.3611098 16.9080818,16.0920183 C16.9080818,15.2444246 16.2209988,14.5592992 15.3709834,14.5592992 C14.5209681,14.5592992 13.8338851,15.2444246 13.8338851,16.0920183 C13.8338851,17.3611098 12.800955,18.391097 11.5282376,18.391097 C10.2555202,18.391097 9.22259006,17.3611098 9.22259006,16.0920183 C9.22259006,15.2444246 8.5355071,14.5592992 7.68549172,14.5592992 C6.83547634,14.5592992 6.14839338,15.2444246 6.14839338,16.0920183 C6.14839338,17.3611098 5.11546329,18.391097 3.84274586,18.391097 C2.57002843,18.391097 1.53709834,17.3611098 1.53709834,16.0920183 L1.53709834,12.7982049 L1.53709834,12.7982049 Z M6.88466348,6.13087659 L31.541258,6.13087659 L35.2287569,10.729034 L3.19562746,10.729034 L6.88466348,6.13087659 L6.88466348,6.13087659 Z M7.68549172,4.59815744 L30.7419669,4.59815744 L30.7419669,1.53118643 L7.68549172,1.53118643 L7.68549172,4.59815744 L7.68549172,4.59815744 Z M3.84274586,19.9238162 C5.74874781,19.9238162 7.31966231,18.5382381 7.62247069,16.7219659 C7.66397234,16.7234986 7.7070111,16.7234986 7.74851275,16.7219659 C8.05132113,18.5382381 9.62223563,19.9238162 11.5282376,19.9238162 C13.4342395,19.9238162 15.005154,18.5382381 15.3079624,16.7219659 C15.3494641,16.7234986 15.3925028,16.7234986 15.4340045,16.7219659 C15.7368128,18.5382381 17.3077274,19.9238162 19.2137293,19.9238162 C21.1197312,19.9238162 22.6906458,18.5382381 22.9934541,16.7219659 C23.0349558,16.7234986 23.0779945,16.7234986 23.1194962,16.7219659 C23.4223046,18.5382381 24.9932191,19.9238162 26.899221,19.9238162 C28.805223,19.9238162 30.3761375,18.5382381 30.6789459,16.7219659 C30.7204475,16.7234986 30.7634863,16.7234986 30.8049879,16.7219659 C31.1077963,18.5382381 32.6787108,19.9238162 34.5847127,19.9238162 C36.7074456,19.9238162 38.4274586,18.2087035 38.4274586,16.0920183 L38.4274586,12.2602205 L32.2790652,4.59662472 L32.2790652,0 L6.14839338,0 L6.14839338,4.59662472 L0,12.2602205 L0,16.0920183 C0,18.2087035 1.72001305,19.9238162 3.84274586,19.9238162 L3.84274586,19.9238162 Z" id="Fill-1"></path>
                    <path d="M23.0564752,38.3179787 L30.7419669,38.3179787 L30.7419669,26.0546928 L23.0564752,26.0546928 L23.0564752,38.3179787 Z M38.4274586,38.3179787 L36.8903603,38.3179787 L36.8903603,21.4565353 L35.3532619,21.4565353 L35.3532619,38.3179787 L32.2790652,38.3179787 L32.2790652,24.5235063 L21.5193768,24.5235063 L21.5193768,38.3179787 L3.07419669,38.3179787 L3.07419669,21.4565353 L1.53709834,21.4565353 L1.53709834,38.3179787 L0,38.3179787 L0,39.8506978 L38.4274586,39.8506978 L38.4274586,38.3179787 Z" id="Fill-3"></path>
                    <path d="M7.68549172,32.1871021 L16.9080818,32.1871021 L16.9080818,26.0562255 L7.68549172,26.0562255 L7.68549172,32.1871021 Z M6.14839338,33.7198212 L18.4451801,33.7198212 L18.4451801,24.5235063 L6.14839338,24.5235063 L6.14839338,33.7198212 Z" id="Fill-5"></path>
                </g>
                <path d="M22.3325018,63.08 L25.1285018,63.08 C25.9925061,63.08 26.6384996,63.2599982 27.0665018,63.62 C27.4945039,63.9800018 27.7085018,64.4999966 27.7085018,65.18 C27.7085018,65.6440023 27.582503,66.0359984 27.3305018,66.356 C27.0785005,66.6760016 26.7205041,66.8839995 26.2565018,66.98 L26.2565018,66.992 C26.7685043,67.0720004 27.1745003,67.2799983 27.4745018,67.616 C27.7745033,67.9520017 27.9245018,68.3679975 27.9245018,68.864 C27.9245018,69.5440034 27.6825042,70.0699981 27.1985018,70.442 C26.7144994,70.8140019 26.0245063,71 25.1285018,71 L22.3325018,71 L22.3325018,63.08 Z M25.1405018,66.728 C26.4285082,66.728 27.0725018,66.2120052 27.0725018,65.18 C27.0725018,64.1479948 26.4285082,63.632 25.1405018,63.632 L22.9325018,63.632 L22.9325018,66.728 L25.1405018,66.728 Z M25.2485018,70.448 C25.9205051,70.448 26.4285001,70.3120014 26.7725018,70.04 C27.1165035,69.7679986 27.2885018,69.3760026 27.2885018,68.864 C27.2885018,68.3439974 27.1165035,67.9500013 26.7725018,67.682 C26.4285001,67.4139987 25.9205051,67.28 25.2485018,67.28 L22.9325018,67.28 L22.9325018,70.448 L25.2485018,70.448 Z M35.9285018,68.108 C35.9285018,69.0840049 35.6645044,69.8299974 35.1365018,70.346 C34.6084991,70.8620026 33.8565067,71.12 32.8805018,71.12 C31.9044969,71.12 31.1505044,70.8620026 30.6185018,70.346 C30.0864991,69.8299974 29.8205018,69.0840049 29.8205018,68.108 L29.8205018,63.08 L30.4205018,63.08 L30.4205018,67.988 C30.4205018,68.8360042 30.6284997,69.4779978 31.0445018,69.914 C31.4605039,70.3500022 32.0724977,70.568 32.8805018,70.568 C33.6805058,70.568 34.2884997,70.3500022 34.7045018,69.914 C35.1205039,69.4779978 35.3285018,68.8360042 35.3285018,67.988 L35.3285018,63.08 L35.9285018,63.08 L35.9285018,68.108 Z M43.7645018,64.712 L43.2485018,65.132 C43.0485008,64.5639972 42.7505038,64.1520013 42.3545018,63.896 C41.9584998,63.6399987 41.436505,63.512 40.7885018,63.512 C40.3244995,63.512 39.9205035,63.5839993 39.5765018,63.728 C39.2325001,63.8720007 38.9705027,64.0679988 38.7905018,64.316 C38.6105009,64.5640012 38.5205018,64.8439984 38.5205018,65.156 C38.5205018,65.4600015 38.596501,65.711999 38.7485018,65.912 C38.9005025,66.112001 39.1585,66.2819993 39.5225018,66.422 C39.8865036,66.5620007 40.3884986,66.6879994 41.0285018,66.8 C42.0605069,66.9760009 42.7924996,67.2319983 43.2245018,67.568 C43.6565039,67.9040017 43.8725018,68.367997 43.8725018,68.96 C43.8725018,69.3840021 43.748503,69.7599984 43.5005018,70.088 C43.2525005,70.4160016 42.902504,70.6699991 42.4505018,70.85 C41.9984995,71.0300009 41.4805047,71.12 40.8965018,71.12 C40.0644976,71.12 39.3625046,70.9540017 38.7905018,70.622 C38.2184989,70.2899983 37.8285028,69.824003 37.6205018,69.224 L38.1485018,68.816 C38.3085026,69.3840028 38.6304994,69.8179985 39.1145018,70.118 C39.5985042,70.4180015 40.1964982,70.568 40.9085018,70.568 C41.5965052,70.568 42.1584996,70.4280014 42.5945018,70.148 C43.030504,69.8679986 43.2485018,69.4840024 43.2485018,68.996 C43.2485018,68.5719979 43.0705036,68.2360012 42.7145018,67.988 C42.3585,67.7399988 41.7405062,67.5400008 40.8605018,67.388 C40.1164981,67.2599994 39.5285039,67.1040009 39.0965018,66.92 C38.6644996,66.7359991 38.3545027,66.5080014 38.1665018,66.236 C37.9785008,65.9639986 37.8845018,65.624002 37.8845018,65.216 C37.8845018,64.807998 38.0025006,64.4320017 38.2385018,64.088 C38.474503,63.7439983 38.8104996,63.470001 39.2465018,63.266 C39.682504,63.061999 40.1924989,62.96 40.7765018,62.96 C42.2645092,62.96 43.2604993,63.5439942 43.7645018,64.712 Z M46.3565018,71 L45.7565018,71 L45.7565018,63.08 L46.3565018,63.08 L46.3565018,71 Z M54.9365018,71 L54.1925018,71 L49.9925018,64.784 L49.4045018,63.728 L49.3925018,63.728 L49.4285018,64.724 L49.4285018,71 L48.8525018,71 L48.8525018,63.08 L49.6085018,63.08 L53.7965018,69.284 L54.3965018,70.352 L54.3725018,69.356 L54.3725018,63.08 L54.9365018,63.08 L54.9365018,71 Z M63.0365018,70.448 L63.0365018,71 L57.4325018,71 L57.4325018,63.08 L62.8445018,63.08 L62.8445018,63.632 L58.0325018,63.632 L58.0325018,66.692 L61.8365018,66.692 L61.8365018,67.256 L58.0325018,67.256 L58.0325018,70.448 L63.0365018,70.448 Z M70.2125018,64.712 L69.6965018,65.132 C69.4965008,64.5639972 69.1985038,64.1520013 68.8025018,63.896 C68.4064998,63.6399987 67.884505,63.512 67.2365018,63.512 C66.7724995,63.512 66.3685035,63.5839993 66.0245018,63.728 C65.6805001,63.8720007 65.4185027,64.0679988 65.2385018,64.316 C65.0585009,64.5640012 64.9685018,64.8439984 64.9685018,65.156 C64.9685018,65.4600015 65.044501,65.711999 65.1965018,65.912 C65.3485025,66.112001 65.6065,66.2819993 65.9705018,66.422 C66.3345036,66.5620007 66.8364986,66.6879994 67.4765018,66.8 C68.5085069,66.9760009 69.2404996,67.2319983 69.6725018,67.568 C70.1045039,67.9040017 70.3205018,68.367997 70.3205018,68.96 C70.3205018,69.3840021 70.196503,69.7599984 69.9485018,70.088 C69.7005005,70.4160016 69.350504,70.6699991 68.8985018,70.85 C68.4464995,71.0300009 67.9285047,71.12 67.3445018,71.12 C66.5124976,71.12 65.8105046,70.9540017 65.2385018,70.622 C64.6664989,70.2899983 64.2765028,69.824003 64.0685018,69.224 L64.5965018,68.816 C64.7565026,69.3840028 65.0784994,69.8179985 65.5625018,70.118 C66.0465042,70.4180015 66.6444982,70.568 67.3565018,70.568 C68.0445052,70.568 68.6064996,70.4280014 69.0425018,70.148 C69.478504,69.8679986 69.6965018,69.4840024 69.6965018,68.996 C69.6965018,68.5719979 69.5185036,68.2360012 69.1625018,67.988 C68.8065,67.7399988 68.1885062,67.5400008 67.3085018,67.388 C66.5644981,67.2599994 65.9765039,67.1040009 65.5445018,66.92 C65.1124996,66.7359991 64.8025027,66.5080014 64.6145018,66.236 C64.4265008,65.9639986 64.3325018,65.624002 64.3325018,65.216 C64.3325018,64.807998 64.4505006,64.4320017 64.6865018,64.088 C64.922503,63.7439983 65.2584996,63.470001 65.6945018,63.266 C66.130504,63.061999 66.6404989,62.96 67.2245018,62.96 C68.7125092,62.96 69.7084993,63.5439942 70.2125018,64.712 Z M77.6405018,64.712 L77.1245018,65.132 C76.9245008,64.5639972 76.6265038,64.1520013 76.2305018,63.896 C75.8344998,63.6399987 75.312505,63.512 74.6645018,63.512 C74.2004995,63.512 73.7965035,63.5839993 73.4525018,63.728 C73.1085001,63.8720007 72.8465027,64.0679988 72.6665018,64.316 C72.4865009,64.5640012 72.3965018,64.8439984 72.3965018,65.156 C72.3965018,65.4600015 72.472501,65.711999 72.6245018,65.912 C72.7765025,66.112001 73.0345,66.2819993 73.3985018,66.422 C73.7625036,66.5620007 74.2644986,66.6879994 74.9045018,66.8 C75.9365069,66.9760009 76.6684996,67.2319983 77.1005018,67.568 C77.5325039,67.9040017 77.7485018,68.367997 77.7485018,68.96 C77.7485018,69.3840021 77.624503,69.7599984 77.3765018,70.088 C77.1285005,70.4160016 76.778504,70.6699991 76.3265018,70.85 C75.8744995,71.0300009 75.3565047,71.12 74.7725018,71.12 C73.9404976,71.12 73.2385046,70.9540017 72.6665018,70.622 C72.0944989,70.2899983 71.7045028,69.824003 71.4965018,69.224 L72.0245018,68.816 C72.1845026,69.3840028 72.5064994,69.8179985 72.9905018,70.118 C73.4745042,70.4180015 74.0724982,70.568 74.7845018,70.568 C75.4725052,70.568 76.0344996,70.4280014 76.4705018,70.148 C76.906504,69.8679986 77.1245018,69.4840024 77.1245018,68.996 C77.1245018,68.5719979 76.9465036,68.2360012 76.5905018,67.988 C76.2345,67.7399988 75.6165062,67.5400008 74.7365018,67.388 C73.9924981,67.2599994 73.4045039,67.1040009 72.9725018,66.92 C72.5404996,66.7359991 72.2305027,66.5080014 72.0425018,66.236 C71.8545008,65.9639986 71.7605018,65.624002 71.7605018,65.216 C71.7605018,64.807998 71.8785006,64.4320017 72.1145018,64.088 C72.350503,63.7439983 72.6864996,63.470001 73.1225018,63.266 C73.558504,63.061999 74.0684989,62.96 74.6525018,62.96 C76.1405092,62.96 77.1364993,63.5439942 77.6405018,64.712 Z M33.1805018,75.698 C33.6645042,76.1100021 33.9065018,76.6759964 33.9065018,77.396 C33.9065018,78.1160036 33.6645042,78.6839979 33.1805018,79.1 C32.6964994,79.5160021 32.0425059,79.724 31.2185018,79.724 L29.1905018,79.724 L29.1905018,83 L28.5905018,83 L28.5905018,75.08 L31.2185018,75.08 C32.0425059,75.08 32.6964994,75.2859979 33.1805018,75.698 Z M32.7245018,78.704 C33.0885036,78.3999985 33.2705018,77.9640028 33.2705018,77.396 C33.2705018,76.8359972 33.0885036,76.4020015 32.7245018,76.094 C32.3605,75.7859985 31.8345052,75.632 31.1465018,75.632 L29.1905018,75.632 L29.1905018,79.16 L31.1465018,79.16 C31.8345052,79.16 32.3605,79.0080015 32.7245018,78.704 Z M40.7165018,75.458 C41.2645045,75.7900017 41.6865003,76.2619969 41.9825018,76.874 C42.2785033,77.4860031 42.4265018,78.2079958 42.4265018,79.04 C42.4265018,79.8720042 42.2785033,80.5939969 41.9825018,81.206 C41.6865003,81.8180031 41.2645045,82.2899983 40.7165018,82.622 C40.168499,82.9540017 39.5225055,83.12 38.7785018,83.12 C38.0344981,83.12 37.3885045,82.9540017 36.8405018,82.622 C36.292499,82.2899983 35.8705033,81.8180031 35.5745018,81.206 C35.2785003,80.5939969 35.1305018,79.8720042 35.1305018,79.04 C35.1305018,78.2079958 35.2785003,77.4860031 35.5745018,76.874 C35.8705033,76.2619969 36.292499,75.7900017 36.8405018,75.458 C37.3885045,75.1259983 38.0344981,74.96 38.7785018,74.96 C39.5225055,74.96 40.168499,75.1259983 40.7165018,75.458 Z M37.1765018,75.938 C36.7244995,76.2220014 36.376503,76.6299973 36.1325018,77.162 C35.8885006,77.6940027 35.7665018,78.3199964 35.7665018,79.04 C35.7665018,79.7600036 35.8885006,80.3859973 36.1325018,80.918 C36.376503,81.4500027 36.7244995,81.8579986 37.1765018,82.142 C37.628504,82.4260014 38.1624987,82.568 38.7785018,82.568 C39.3945049,82.568 39.9304995,82.4260014 40.3865018,82.142 C40.8425041,81.8579986 41.1925006,81.4500027 41.4365018,80.918 C41.680503,80.3859973 41.8025018,79.7600036 41.8025018,79.04 C41.8025018,78.3199964 41.680503,77.6940027 41.4365018,77.162 C41.1925006,76.6299973 40.8425041,76.2220014 40.3865018,75.938 C39.9304995,75.6539986 39.3945049,75.512 38.7785018,75.512 C38.1624987,75.512 37.628504,75.6539986 37.1765018,75.938 Z M49.6625018,83 L47.3945018,79.568 L45.0185018,79.568 L45.0185018,83 L44.4185018,83 L44.4185018,75.08 L47.3585018,75.08 C48.1505057,75.08 48.7804994,75.279998 49.2485018,75.68 C49.7165041,76.080002 49.9505018,76.6279965 49.9505018,77.324 C49.9505018,77.9000029 49.7825035,78.3779981 49.4465018,78.758 C49.1105001,79.1380019 48.6505047,79.3839994 48.0665018,79.496 L50.3705018,83 L49.6625018,83 Z M45.0185018,79.004 L47.3465018,79.004 C47.986505,79.004 48.4765001,78.8600014 48.8165018,78.572 C49.1565035,78.2839986 49.3265018,77.8680027 49.3265018,77.324 C49.3265018,76.7799973 49.1565035,76.3620015 48.8165018,76.07 C48.4765001,75.7779985 47.986505,75.632 47.3465018,75.632 L45.0185018,75.632 L45.0185018,79.004 Z M57.4985018,75.632 L54.6065018,75.632 L54.6065018,83 L54.0065018,83 L54.0065018,75.632 L51.1145018,75.632 L51.1145018,75.08 L57.4985018,75.08 L57.4985018,75.632 Z M63.4025018,80.516 L59.6105018,80.516 L58.6265018,83 L57.9905018,83 L61.1585018,75.08 L61.8665018,75.08 L65.0345018,83 L64.3985018,83 L63.4025018,80.516 Z M63.1865018,79.964 L61.8065018,76.508 L61.5185018,75.668 L61.5065018,75.668 L61.2185018,76.484 L59.8385018,79.964 L63.1865018,79.964 Z M71.8625018,82.448 L71.8625018,83 L66.5105018,83 L66.5105018,75.08 L67.1105018,75.08 L67.1105018,82.448 L71.8625018,82.448 Z" id="Business-Portal" fill="#7A7A7A"></path>
            </g>
        </g>
    </g>
</svg>